<?xml version="1.0" encoding="utf-8"?>
<!-- Generator: Adobe Illustrator 23.0.6, SVG Export Plug-In . SVG Version: 6.00 Build 0)  -->
<svg version="1.1" id="Layer_1" xmlns="http://www.w3.org/2000/svg" xmlns:xlink="http://www.w3.org/1999/xlink" x="0px" y="0px"
	 viewBox="0 0 2560 1600" style="enable-background:new 0 0 2560 1600;" xml:space="preserve">
<style type="text/css">
	.st0{opacity:0.25;fill:#FFFFFF;stroke:#000000;stroke-width:3;stroke-miterlimit:10;enable-background:new    ;}
	.st1{opacity:0.25;fill:none;stroke:#000000;stroke-width:3;stroke-miterlimit:10;enable-background:new    ;}
	.st2{opacity:0;}
</style>
<title>OneLineTableArtboard 1</title>
<polyline class="st0" points="517.6,1194.1 875.2,1194.1 943,1194.1 943,1180.2 875.2,1180.2 921.4,638.5 "/>
<path class="st1" d="M921.4,640.6c30.2,5.1,61.4,9.7,93.7,13.8c16.1,2,31.9,3.9,47.6,5.5c132.4,9.5,265.4,10.4,398,2.8
	c0,0,169.6-9.9,298.5-51.1c27.4-8.9,54.1-19.6,80-31.9l24.6-13.2c2.9-1.8,6-3.8,9.3-6c5.4-3.5,10.4-7.4,15.1-11.6
	c10.8-10.3,16.6-22.8,17.8-27.6c0-0.4,0.1-0.7,0.2-1.1c0-0.3,0-0.7,0-1c-1.6-65-264.4-117.6-588.3-117.6
	c-324.9,0-588.3,52.9-588.3,118.2s263.4,118.2,588.3,118.2h10.1c25-0.1,84.3-0.9,167.3-9.7c55.6-5.9,119.6-12.9,201.9-33.2
	c10.1-2.5,19.2-4.9,27-6.9l4.7-1.4l9.4,6l26.7,314.6l4.3,59.4l31.7,418.8l-31.7,8.3l-80.7-725.6c-12.7,4-26.2,7.7-40.4,11.1
	c-36.4,8.6-73.6,13.7-111,15.2v489.3l-38.9,1.4l-13-487.9c-15.2,1.5-30.6,2.9-46.1,4.1c-99.3,7.8-199.1,8.2-298.5,1.4l-59.1,718.7
	l-44.7,8.3l43.3-732.5c-14.1-1.1-28.5-2.5-43.3-4.1c-29.4-3.3-57.3-7.6-83.6-12.4L908.4,1152l145.7,0.5"/>
<line class="st1" x1="1782.9" y1="1155.2" x2="2410.8" y2="1157.5"/>
<line class="st1" x1="1536.1" y1="1154.3" x2="1743.7" y2="1155.1"/>
<line class="st1" x1="1102.5" y1="1152.7" x2="1498.1" y2="1154.2"/>
<g class="st2">
	<path d="M1738.1,587.9c5.6,0,5.6-8.3,0-8.3S1732.5,587.9,1738.1,587.9z"/>
</g>
<g class="st2">
	<path d="M1738.2,588c5.6,0,5.6-8.3,0-8.3S1732.6,588,1738.2,588z"/>
</g>
<g class="st2">
	<path d="M1738.2,587.5c5.6,0,5.6-8.3,0-8.3S1732.6,587.5,1738.2,587.5z"/>
</g>
<g class="st2">
	<path d="M1735.2,580.8L1735.2,580.8c-1.4,1.3-1.7,3.1-1,4.6c0.2,0.5,0.5,1,0.9,1.4l0.9,0.6c0.7,0.4,1.4,0.6,2.2,0.6l1.1-0.1
		c0.7-0.2,1.4-0.6,1.9-1.1l0.1-0.1c0.4-0.4,0.7-0.9,0.9-1.4c0.3-0.5,0.4-1,0.4-1.6c-0.1-1.1-0.5-2.1-1.3-2.9l-0.9-0.6
		c-0.7-0.4-1.4-0.6-2.2-0.6l-1.2,0.2C1736.4,579.9,1735.7,580.3,1735.2,580.8L1735.2,580.8z"/>
</g>
<g class="st2">
	<path d="M1737.8,587.7c5.6,0,5.6-8.3,0-8.3C1732.2,579.4,1732.2,587.7,1737.8,587.7z"/>
</g>
<g class="st2">
	<path d="M1738.2,587.4c5.6,0,5.6-8.3,0-8.3S1732.6,587.4,1738.2,587.4z"/>
</g>
<g class="st2">
	<path d="M1738.2,587.7c5.6,0,5.6-8.3,0-8.3S1732.6,587.7,1738.2,587.7z"/>
</g>
<g class="st2">
	<path d="M1738.3,587.7c5.6,0,5.6-8.3,0-8.3S1732.7,587.7,1738.3,587.7z"/>
</g>
<g class="st2">
	<path d="M1738.3,588.1c5.6,0,5.6-8.3,0-8.3S1732.7,588.1,1738.3,588.1z"/>
</g>
<g class="st2">
	<path d="M1737.7,587.6c5.6,0,5.6-8.3,0-8.3S1732.2,587.6,1737.7,587.6z"/>
</g>
<g class="st2">
	<path d="M1737.9,587.6c5.6,0,5.6-8.3,0-8.3C1732.3,579.3,1732.3,587.6,1737.9,587.6z"/>
</g>
</svg>
