<?xml version="1.0" encoding="utf-8"?>
<!-- Generator: Adobe Illustrator 23.0.6, SVG Export Plug-In . SVG Version: 6.00 Build 0)  -->
<svg version="1.1" id="Layer_1" xmlns="http://www.w3.org/2000/svg" xmlns:xlink="http://www.w3.org/1999/xlink" x="0px" y="0px"
	 viewBox="0 0 2560 1600" style="enable-background:new 0 0 2560 1600;" xml:space="preserve">
<style type="text/css">
	.st0{opacity:0.25;fill:none;stroke:#000000;stroke-width:3;stroke-miterlimit:10;enable-background:new    ;}
</style>
<title>Artboard 1</title>
<polyline class="st0" points="20.3,1126.6 92.8,1126.6 355.6,1126.6 594.5,1123.5 "/>
<path class="st0" d="M594.7,1124.1l114.5-262.2c2.5-5.2,5.8-11.3,7-10.9c4.1,1.3-20.7,79.9-41.4,145.5c0,0-12,38.2-45.4,140.7
	c-2.7,12.6-3.2,19.2-1.6,19.6c3.2,1,14.2-22.6,19.3-33.6c26.2-56.8,97-217,128.9-289.2"/>
<path class="st0" d="M776,833.9l76,53.6c30.9,19.1,62.9,36.3,95.9,51.4c29.3,13.5,63.6,29,111.4,41.5c24.9,6.5,50.2,11.4,75.7,14.6"
	/>
<path class="st0" d="M1134.5,994.5v241c-0.4,75.7,1.6,113.7,6,114c7.8,0.5,23.1-115.5,46-348c10.1-0.1,20.5-0.4,31-1
	c93.2-5.4,174-32,240-64c14.1,44.9,24.3,81.7,31,107c16.2,60.9,24.8,103,52,160c7.2,15,8.7,20.3,10,20c7.3-1.8-26.2-160.5-58-304
	c6.4-4.1,12.2-9.1,17-15c10.5-12.8,14-26.3,16-36c17-81.4,16-140,16-140c3-104,2.8-59.1,2-79c-2-50-17.1-87-27-97
	c-12-12.2-29-35-64-41c-59-10.1-39-5-95-10c-25.5-2.3-73-3-126-9c-99.9-11.3-1.3,123.5,3,124c5.3,0.6,13.9-33.9,18-55
	c11.3-58.6,5.3-104,0-147c-14.9-120.9-24.2-226.2-63-258c-7.7-6-16.1-11.1-25-15c-9.5-4-36.8-15.4-61-5c-16.3,7-13.8,16.5-38,32
	c-12.7,8.1-23.6,12-32,15c-26.2,9.2-48.3,10.4-65,11c-67.6,2.6-101.4,3.9-127-1c-25.2-4.8-20.7-7.1-91-25c-30.1-7.6-55.7-13.5-80-2
	c-5.4,2.5-17.7,8.6-25,22c-5.6,10.3-5.9,20.7-5,32c3,36.6,17,63,17,63c7,13.1,19.7,67.4,45,176c23.3,100,25,126.2,25,147
	c0,13.2-0.6,27.2,0,55c1.2,56,2.1,84.5,12,104c9.8,19.3,31,32.1,73,57c45,26.7,78.4,41.3,129,65c12.4,5.8,42.1,20.5,102,49
	c27.2,12.9,50.3,23.5,74,15c6.9-2.5,17.2-7.5,30-24c22-28.3,32.5-65.3,35-150c1.9-65.8,2.9-98.7-7-117c-22-40.7-64-55.2-127-77
	c-69.1-23.9-122.7-24-162-24c0,0-48.9-0.1-107,22c-12.2,4.6-22,9.2-22,15c0,12.8,47.8,10.6,92,43c24.4,17.9,37.6,38.9,52,62
	c26.8,42.8,18.2,52.3,42,89c21.5,33.1,46.6,53.5,72,74c31.3,25.4,46.4,38.8,67,45c42.7,13,83.8-3,107-15c-21.9,3.6-44.3,2.9-66-2
	c-24.3-5.5-40.9-15-55-23c-28.6-16.2-46.2-33.5-62-49c-20.2-19.8-27.2-31-31-38c-7.5-13.8-14.5-26.5-12-40c1.1-6.1,6-22.1,50-42
	c49.9-22.5,94.4-24.8,100-25c70.6-2.9,124.9,16.8,168,33c16.1,6,81.8,27.9,149,80c20.7,16.1,28.6,24.9,28,35
	c-1.3,23.6-47.2,37-149,72c-73.9,25.4-96.3,19.3-119,42c-30.1,30.2-34.3,75.3-33,109l-11,216l1367-4"/>
</svg>
