<?xml version="1.0" encoding="utf-8"?>
<!-- Generator: Adobe Illustrator 23.0.6, SVG Export Plug-In . SVG Version: 6.00 Build 0)  -->
<svg version="1.1" id="Layer_1" xmlns="http://www.w3.org/2000/svg" xmlns:xlink="http://www.w3.org/1999/xlink" x="0px" y="0px"
	 viewBox="0 0 2560 1600" style="enable-background:new 0 0 2560 1600;" xml:space="preserve">
<style type="text/css">
	.st0{opacity:0.25;fill:#FFFFFF;stroke:#000000;stroke-width:3;stroke-miterlimit:10;}
</style>
<title>OneLineTableArtboard 1</title>
<path class="st0" d="M246.5,871.5h727v-39c0,0-0.2-117.2,4-154.2c1.2-11,3-21.8,3-21.8c0.6-3.6,1.4-8,2.3-12.9
	c1.3-6.8,3.2-15.3,5.7-25.1c3.5-7.9,9-14.8,16-20c14.5-10.4,31.4-9.3,38-9c29.2,1.5,131.2,4.3,271,9c9-0.7,17.6-3.8,25-9
	c10.6-7.6,14.7-17.3,21-33c8.7-21.6,15.2-37.8,8-48c-6.7-9.5-19.7-5.7-27-10c-16.5-9.8-11-61,68-205l26-4l646,233
	c4.2,3.7,14.5,12.2,18,22c11,30.5-10.8,62.2-29,62c-9.4-0.1-16.5-11.4-20-17c-10.7-16.9-7-34.8-6-39c-11.3,49.2-21.5,100.9-30,155
	c-25.9,164.7-34,331.6-24,498l-33,10c-4.8-20.4-8.5-41.1-11-62c-2.3-19.3-3.6-38.6-4-58c-3.1-138.1,4-218,4-218
	c8.3-92.6,26.6-165.3,57-309c0.9-4.3,6.2-15.5,3-28c-6.5-24.9-49-33.5-60-36c-55.4-12.6-223.5-77.9-489-188c-4.3-2.8-19.5-11.7-33-6
	c-8.2,3.5-12.3,10.8-15,16c-13.2,25.3-23.5,51-29,70l585,204l-33,167l-542-247l-33,96l518,261l-247,10l-385-263
	c-51.2,2-93.6-3.8-122-4c-49.4-0.3-70.6-1.9-89,13c-24.7,20.1-27.3,56.1-27,76l-2,162l-15,3c0.7-56,1.3-112,2-168
	c-0.2-12.4,0.8-24.8,3-37c3-17.1,7-25.9,9-30c5.2-10.6,10-15.2,12-17c4.4-3.9,9.5-7,15-9l364,326l52-20l476-20v48
	c-261.2,15.7-435.4,25.7-453,25c-7.7-0.4-15.5,0.3-23,2c-8.8,1.9-17.3,5.3-25,10c-5.9,3.6-11.2,8-16,13c-9.9,8.7-96.9-62-371-333
	l10-15l324,302v346h15l2-345l16,9l1,336h1098"/>
</svg>
